/* XPM */
static char *result[] = {
/* columns rows colors chars-per-pixel */
"32 32 7 1 ",
"  c #323E4F",
". c #385660",
"X c #3D6E70",
"o c #3CA370",
"O c #8FDE5D",
"+ c #CFFF70",
"@ c None",
/* pixels */
"@@@@@@@@@@@@@@@@@@@@@@@@@@@@@@@@",
"@@@@@@@@@@@@@@@oooo@@@@@@@@@@@@@",
"@@@@@@@@@@@@@@oooooo@@@@@@@@@@@@",
"@@@@@@@@@@@@@@oooOOO@@@@@@@@@@@@",
"@@@@@@@@@@@@@OXoOOOOO@@@@@@@@@@@",
"@@@@@@@@@@@@@oooOOOOO@@@@@@@@@@@",
"@@@@@@@@@@@@OooOOOOOOO@@@@@@@@@@",
"@@@@@@@@@@@@OXoOOoooOO@@@@@@@@@@",
"@@@@@@@@@@@OoooOOo .oO@@@@@@@@@@",
"@@@@@@@@@@@@ooOOo  .Xo@@@@@@@@@@",
"@@@@@@@@@@@OXoOOo  ..oO@@@@@@@@@",
"@@@@@@@@@@@OXoOo   ..oO@@@@@@@@@",
"@@@@@@@@@@@OXoOo    .oO@OO@@@@@@",
"@@@@@@@@@@@OXoOo    .Xo@@O@@@@@@",
"@@@@@@@@@ooOXoO     .Xo@@@@@@@@@",
"@@@@@@@@@o@OXoO     .Xo@@@@@@@@@",
"@@@@@@@@@@@OXoo OOO .Xo@@@@@@@@@",
"@@@@@@@@@@@OOoo ooOO.Xo@@@@@@@@@",
"@@@@@@@@@@@+O.oo o OOXo@@@@@@@@@",
"@@@@@@@@@@@+O. oo  OOXo@@@@@@@@@",
"@@@@@@@@@@@+OO.    OOXo@@@@@@@@@",
"@@@@@@@@@@@++O.   O+Ooo@@@@@@@@@",
"@@@@@@@@@@@O+OOOOO++Oo@@@@@@@@@@",
"@@@@@@@@@@@@+++++OOOXo@@@@@@@@@@",
"@@@@@@@@@@@@O+++OOOXXo@@@@@@@@@@",
"@@@@@@@@@o@@oOOOO .Xoo@@@@@@@@@@",
"@@@@@@@@@@@@@oXX..XXo@@@@@@@@@@@",
"@@@@@@@@@@@@@ooXXXXoo@@@@@@@@@@@",
"@@@@@@@@@@@@@@oXXXXo@@@@@@@@@@@@",
"@@@@@@@@@@@@@@ooXXoo@@@@@@@@@@@@",
"@@@@@@@@@@@@@@@oooo@@@@@@@@@@@@@",
"@@@@@@@@@@@@@@@@@@@@@@@@@@@@@@@@"
};
