/* XPM */
static char *result[] = {
/* columns rows colors chars-per-pixel */
"32 32 8 1 ",
"  c #323E4F",
". c #385660",
"X c #3D6E70",
"o c #3CA370",
"O c #66A667",
"+ c #8FDE5D",
"@ c #CFFF70",
"# c None",
/* pixels */
"################################",
"###############oo+++############",
"##############oo++++############",
"##############o+@@@++###########",
"#############oO+@@@@+###########",
"########@@###o+@@@@@@+##########",
"############oo+@@+++@+##########",
"############oO+@+++++@##########",
"#########o##o+@@++ .+@##########",
"############o+@@+  .X++#########",
"###########oO+@++  ..+@#########",
"###########oX+@+   ..+@#########",
"###########oX+++    .+@#########",
"###########oX+++    .X+#########",
"###########oX+@     .X+#########",
"###########oX+@     .X+#########",
"###########oX+@ ooo .X+#########",
"###########oo++ o+oo.X+#########",
"###########+o.++ + ooX+#########",
"###########+o. ++  ooX+#########",
"###########+oo.    +oX+#########",
"###########++o.   o+ooo#########",
"############+oooooo+oo##########",
"############+++++++oXo##########",
"############oo+++ooXO+##########",
"############ooooo .Xo+##########",
"#############oOX..XOo###########",
"#############ooXXXXo+##oo#######",
"############o#oOXXOo###oo#######",
"##############ooOOo+############",
"###############oooo#############",
"################################"
};
