/* XPM */
static char *result[] = {
/* columns rows colors chars-per-pixel */
"32 32 8 1 ",
"  c #323E4F",
". c #385660",
"X c #3D6E70",
"o c #3CA370",
"O c #66A667",
"+ c #8FDE5D",
"@ c #CFFF70",
"# c None",
/* pixels */
"################################",
"###############++oo#############",
"##############+oOOo+############",
"##############+OXXOo############",
"#############+OX..XOo###########",
"#############+X.  .Xo###########",
"############@+X.  .Xoo##########",
"############@+X    ooo##########",
"############++.  ooooo##########",
"###########++X. ooo+++##########",
"###########++. oo++++++#########",
"###########+X. o+++++++#########",
"###########+X.oo+ooo+++#########",
"###########+X.o++oooo++#++######",
"###########+X.o+o   oo+#+@######",
"##########o+X.o+    .o+#@#######",
"##########o@+.oo ++ .o+#########",
"###########@+.oo o++.o+#########",
"###########@++ ooo@+.o+#########",
"###########@@+++  @+.o+#########",
"###########+@@@+++++.o+#########",
"###########o+++@@++ Ooo#########",
"###########+oX++++ .oo##########",
"############oX.    .oo##########",
"############oOX    Xo+##########",
"############ooX.  .Xo+##########",
"#########oo##oOX..XOo####+######",
"#########o###ooXXXXo+###########",
"##############oOXXOo############",
"##############ooOOo+############",
"###############oooo#############",
"################################"
};
