/* XPM */
static char *result[] = {
/* columns rows colors chars-per-pixel */
"32 32 7 1 ",
"  c #323E4F",
". c #354A57",
"X c #3D6E70",
"o c #3CA370",
"O c #8FDE5D",
"+ c #CFFF70",
"@ c None",
/* pixels */
"@@@@@@@@@@@@@@@@@@@@@@@@@@@@@@@@",
"@@@@@@@@@@@@@@O+OOO@@@@@@@@@@@@@",
"@@@@@@@@@@@@@@+OOXoO@@@@@@@@@@@@",
"@@@@@@@@@@@@@OOOXXXo@@@@@@@@@@@@",
"@@@@@@@@@+@@@+OX..XXO@@@@@@@@@@@",
"@@@@@@@@@@@@O+O.  .Xo@@@@@@@@@@@",
"@@@@@@@@@@@@++O.  .XoO@@@@@@@@@@",
"@@@@@@@@@@@@+OX    .XO@@@@@@@@@@",
"@@@@@@@@@@@O+O.    .Xo@@@@@@@@@@",
"@@@@@@@@@@@O+O.    .Xo@@@@@@@@@@",
"@@@@@@@@@@@++O      .oO@@@@@@@@@",
"@@@@@@@@@@@++O      .XO@@@@@@@@@",
"@@@@@@@@@@@++O      .Xo@@@@@@@@@",
"@@@@@@@@@@@++O    ooooo@@@@@@@@@",
"@@@@@@@@@@@O+O  oooOOOo@@@@@@@@@",
"@@@@@@@@@@@O+OOooOOOOOO@@@@@@@@@",
"@@@@@@@@@@@oO+OoooooOOO+@@@@@@@@",
"@@@@@@@@@@@oO+Oo O ooOO@@@@@@@@@",
"@@@@@@@@@@@oXO+OoO  oOO@@@@@@@@@",
"@@@@@@@@@@@oX.OOO   oOO@@@@@@@@@",
"@@@@@@@@@@@oX.      oOO@@@@@@@@@",
"@@@@@@@@@@@ooX.    .oOO@@@@@@@@@",
"@@@@@@@@@@@@oX.    .oO@@@@@@@@@@",
"@@@@@@@@@@@@oX.    .oO@@@@@@@@@@",
"@@@@@@@@@@@@oXX    oOO@@@@@@@@@@",
"@@@@@@@@@@@@ooX.  .oOO@@@@@@@@@@",
"@@@@@@@@@@@@@oXX..XoO@@@@@@@@@@@",
"@@@@@@@@@@oo@ooXXXoOO@@@OO@@@@@@",
"@@@@@@@@@@oo@@oXoooO@@@@@O@@@@@@",
"@@@@@@@@@@@@@@ooOOOO@@@@@@@@@@@@",
"@@@@@@@@@@@@@@@oooo@@@@@@@@@@@@@",
"@@@@@@@@@@@@@@@@@@@@@@@@@@@@@@@@"
};
