/* XPM */
static char *b13107cc25ab466da4dfef8cbb79d8468bIxeXPNVvn9TkHE[] = {
/* columns rows colors chars-per-pixel */
"32 32 16 1 ",
"  c None",
". c black",
"X c #020000",
"o c #030000",
"O c #010303",
"+ c #040000",
"@ c #060000",
"# c #060101",
"$ c #020506",
"% c #090000",
"& c gray10",
"* c #343434",
"= c #436F7A",
"- c #5EB0C4",
"; c #FAFDFE",
": c white",
/* pixels */
"                                ",
"                                ",
"                                ",
"            ...........         ",
"           .***********.        ",
"          +*************.       ",
"         .***************.      ",
"        ..*****+..........      ",
"        ..****..----:::::.      ",
"        ..****.=---:::;:--$     ",
"       ...****.==---------$     ",
"      %*..****.===--------$     ",
"     .**..****.===========.     ",
"    %.**..****..=========..     ",
"    %.**..*****+.=======..      ",
"    %.&&..******..........      ",
"    %.&&..&**************.      ",
"    %.&&..&&*************.      ",
"    %.&&..&&&************.      ",
"    %.&&..&&&************.      ",
"    %.&&..&&&&***********.      ",
"    %.&&..&&&&&&&******&&.      ",
"    %..&..&&&&&&&&&&&&&&&.      ",
"     .....&&&&&&&&&&&&&.&.      ",
"      ....&&&&&&........&.      ",
"        ..&&&&&&.......&&.      ",
"        ..&&&&&&.  ..&&&&.      ",
"        ..&&&&&&.  ..&&&&.      ",
"        ..&&&&&&.  ..&&&&.      ",
"        ...&&&&..  ...&&.%      ",
"         .+....+    .....       ",
"           ....      ...        "
};
