/* XPM */
static char *result[] = {
/* columns rows colors chars-per-pixel */
"32 32 16 1 ",
"  c black",
". c #020000",
"X c #030000",
"o c #010303",
"O c #040000",
"+ c #060000",
"@ c #060101",
"# c #020506",
"$ c #090000",
"% c gray10",
"& c #343434",
"* c #436F7A",
"= c #5EB0C4",
"- c #FAFDFE",
"; c white",
": c None",
/* pixels */
"::::::::::::::::::::::::::::::::",
"::::::::::::::::::::::::::::::::",
"::::::::::::::::::::::::::::::::",
":::::::::           ::::::::::::",
":::::::: &&&&&&&&&&& :::::::::::",
"::::::: &&&&&&&&&&&&&O::::::::::",
":::::: &&&&&&&&&&&&&&& :::::::::",
"::::::          O&&&&&  ::::::::",
":::::: ;;;;;====  &&&&  ::::::::",
":::::#==;-;;;===* &&&&  ::::::::",
":::::#=========** &&&&   :::::::",
":::::#========*** &&&&  &$::::::",
":::::o*********** &&&&  && :::::",
":::::  *********  &&&&  && $::::",
"::::::  ******* O&&&&&  && $::::",
"::::::          &&&&&&  %% $::::",
":::::: &&&&&&&&&&&&&&%  %% $::::",
":::::: &&&&&&&&&&&&&%%  %% $::::",
":::::: &&&&&&&&&&&&%%%  %% $::::",
":::::: &&&&&&&&&&&&%%%  %% $::::",
":::::: &&&&&&&&&&&%%%%  %% $::::",
":::::: %%&&&&&&%%%%%%%  %% $::::",
":::::: %%%%%%%%%%%%%%%  %  $::::",
":::::: % %%%%%%%%%%%%%     :::::",
":::::: %        %%%%%%    ::::::",
":::::: %%X      %%%%%%  ::::::::",
":::::: %%%%  :: %%%%%%  ::::::::",
":::::: %%%%  :: %%%%%%  ::::::::",
":::::: %%%%  :: %%%%%%  ::::::::",
"::::::$ %%   ::  %%%%   ::::::::",
":::::::X   X::::@    +.:::::::::",
"::::::::XX.::::::XXXX:::::::::::"
};
