/* XPM */
static char *result[] = {
/* columns rows colors chars-per-pixel */
"32 32 8 1 ",
"  c black",
". c #632010",
"X c #457139",
"o c red",
"O c #DE8A31",
"+ c yellow",
"@ c #FFCF9C",
"# c white",
/* pixels */
"XX                            XX",
"XX                            XX",
"  ..OOOO..OO..OOOO..OO..OOOO..  ",
"  ..OOOO..OO..OOOO..OO..OOOO..  ",
"  OO      OO        OO      OO  ",
"  OO      OO        OO      OO  ",
"  OO......OO........OO......OO  ",
"  OO......OO........OO......OO  ",
"  OO....oo++..oooo..++oo....OO  ",
"  OO....oo++..oooo..++oo....OO  ",
"  ++..ooOO##..OOOO..##OOoo..++  ",
"  ++..ooOO##..OOOO..##OOoo..++  ",
"  ++..oooo++..oooo..++oooo..++  ",
"  ++..oooo++..oooo..++oooo..++  ",
"  @@......@@........@@......@@  ",
"  @@......@@........@@......@@  ",
"  ##++++++++OO####OO++++++++##  ",
"  ##++++++++OO####OO++++++++##  ",
"  OO..........++++..........OO  ",
"  OO..........++++..........OO  ",
"  OO........  OOOO  ........OO  ",
"  OO........  OOOO  ........OO  ",
"  ++..oooooooo....oooooooo..++  ",
"  ++..oooooooo....oooooooo..++  ",
"  OO..oooooooo....oooooooo..OO  ",
"  OO..oooooooo....oooooooo..OO  ",
"  OO  ....................  OO  ",
"  OO  ....................  OO  ",
"  ..OOOOOO++@@####@@++OOOOOO..  ",
"  ..OOOOOO++@@####@@++OOOOOO..  ",
"                                ",
"                                "
};
