/* XPM */
static char *result[] = {
/* columns rows colors chars-per-pixel */
"32 32 3 1 ",
"  c black",
". c white",
"X c None",
/* pixels */
"XXXXXXXXXXXXXXXXXXXXXXXXXXXXXXXX",
"XXXXXXXXXXXXXXXXXXXXXXXXXXXXXXXX",
"XXXXXXXXXXXXXXXXXXXXXXXXXXXXXXXX",
"XXXXXXXXXXXXXXXXXXXXXXXXXXXXXXXX",
"XXXXXXXXXXXXXXXXXXXXXXXXXXXXXXXX",
"XXXXXXXXXXXXXXXXXXXXXXXXXXXXXXXX",
"XXXXX.XX....XXXXXXXX....XX.XXXXX",
"XXXX. ..    .XXXXXX.    .. .XXXX",
"XXXX.        .XXXX.        .XXXX",
"XXXXX.        ....        .XXXXX",
"XXXXXX.    ...    ...    .XXXXXX",
"XXXX...  ..  ..  ..  ..  ...XXXX",
"XXX.  . .     ....     . .  .XXX",
"XX.. .  ..    ....    ..  . ..XX",
"X.   ..   ..  ....  ..   ..   .X",
"X. .. .. .  . .... .  . .. .. .X",
"XX. .  . ... . .. . ... .  . .XX",
"XX.  ..   .. . .. . ..   ..  .XX",
"XX. . ..   .. .... ..   .. . .XX",
"XX. .  .  .    ..    .  .  . .XX",
"XX.  ..  ...        ...  ..  .XX",
"XXX. ...  ..        ..  ... .XXX",
"XX. .....  ..      ..  ..... .XX",
"XX. .. ..    .    .    .. .. .XX",
"XX. ..  ..    ....    ..  .. .XX",
"XXX. ..       .  .       .. .XXX",
"XXXX.                      .XXXX",
"XXXX.                      .XXXX",
"XXXXX. .                . .XXXXX",
"XXXX. .. ..          .. .. .XXXX",
"XXXX.   .   ........   .   .XXXX",
"XXXXX...X...XXXXXXXX...X...XXXXX"
};
