/* XPM */
static char *result[] = {
/* columns rows colors chars-per-pixel */
"32 32 16 1 ",
"  c gray17",
". c #717171",
"X c #7C7C7C",
"o c #8B2424",
"O c #8B2525",
"+ c #898989",
"@ c #959595",
"# c gray64",
"$ c gray69",
"% c #BCBCBC",
"& c #C5C1C1",
"* c #CACACA",
"= c LightGray",
"- c gainsboro",
"; c #E7E7E7",
": c None",
/* pixels */
"::::::::::::::::::::::::::::::::",
"::::::::::::::::::::::::::::::::",
"::::::::::::::::::::::::::::::::",
"::::::::::::::::::::::::::::::::",
"::::::::::::::::::::::::::::::::",
"::::::::::::::::::::::::::::::::",
"::::::::::::::::::::::::::::::::",
"::::::::::::::::::::::::..::::::",
":::::::::::::::::::::::.XX.:::::",
":::::::::::::::::::::::.++.:::::",
":::::::::::::::::::::::+@@+:::::",
":::::::::::::::::::::::@##@:::::",
"::::::::::::::::::::::::@#@:::::",
"::X::::::::::X::::::::::@#@:::::",
"::XX::::::::XX::::::::::@#@:::::",
"::X@X+#$#@+X@X::::::::::@#@:::::",
"::Xo#$%*%$$o@@X$$$$$::::#$#:::::",
":X#oo%****oo##X-;--;$$::#%#:::::",
":X$$ o**&O %$$X=-;--;-#:#*#:::::",
":X%% **X** *%%**=--=--=#**#:::::",
":X****X*X********==*==****#:::::",
":+************************#:::::",
":@***********************#::::::",
":@***********************#::::::",
":#**********************#:::::::",
":#**********************#:::::::",
"::#****************%***%+:::::::",
"::#%***%*********%$$$%%+::::::::",
":::#%%$X$%%$@@@@@@++@$$X::::::::",
":::X##X:X##X:::::::X+@@X::::::::",
"::::XX:::XX:::::::::XXX:::::::::",
"::::::::::::::::::::::::::::::::"
};
