/* XPM */
static char *result[] = {
/* columns rows colors chars-per-pixel */
"32 32 135 2 ",
"   c #1E0F0F",
".  c #1E1414",
"X  c #2C0F0F",
"o  c #340404",
"O  c #3B0202",
"+  c #360809",
"@  c #3D0A0A",
"#  c #241515",
"$  c #2C1415",
"%  c #261817",
"&  c #2E1718",
"*  c #271919",
"=  c #2B1A1A",
"-  c #311717",
";  c #321817",
":  c #3B1718",
">  c #331D1D",
",  c #3C1C1C",
"<  c #3F201F",
"1  c #362121",
"2  c #3C2222",
"3  c #440405",
"4  c #4D0505",
"5  c #420B0B",
"6  c #4C0C0C",
"7  c #520404",
"8  c #5D0404",
"9  c #530B0B",
"0  c #5B0A0A",
"q  c #461415",
"w  c #491313",
"e  c #421D1D",
"r  c #4C1A1A",
"t  c #541312",
"y  c #581010",
"u  c #640303",
"i  c #6C0404",
"p  c #620808",
"a  c #6A0A0A",
"s  c #710101",
"d  c #7C0404",
"f  c #710808",
"g  c #780A0B",
"h  c #44201F",
"j  c #421F20",
"k  c #432425",
"l  c #4C2424",
"z  c #452827",
"x  c #462728",
"c  c #4B2729",
"v  c #462929",
"b  c #4C2B2A",
"n  c #502524",
"m  c #5A2626",
"M  c #522D2C",
"N  c #5C2D2C",
"B  c #55302F",
"V  c #532F30",
"C  c #5B2F31",
"Z  c #553131",
"A  c #5C3433",
"S  c #5E3739",
"D  c #632E2F",
"F  c #633635",
"G  c #6B3434",
"H  c #653837",
"J  c #693937",
"K  c #623638",
"L  c #653A3A",
"P  c #6C3C3B",
"I  c #733436",
"U  c #7A3636",
"Y  c #753837",
"T  c #733E3C",
"R  c #7B3D3C",
"E  c #74413E",
"W  c #6D3F41",
"Q  c #713F41",
"!  c #6E4343",
"~  c #734242",
"^  c #7B4442",
"/  c #754848",
"(  c #7C494A",
")  c #830303",
"_  c #8C0303",
"`  c #810B0B",
"'  c #880808",
"]  c #920404",
"[  c #9C0303",
"{  c #930D0D",
"}  c #9B0A0B",
"|  c #8B1010",
" . c #A30000",
".. c #8C3D3D",
"X. c #824544",
"o. c #8A4444",
"O. c #844946",
"+. c #884947",
"@. c #874348",
"#. c #8C454A",
"$. c #864A48",
"%. c #8B4B4A",
"&. c #914244",
"*. c #904A47",
"=. c #93474C",
"-. c #9C474A",
";. c #934B4B",
":. c #9B4D4B",
">. c #9F504F",
",. c #8E4F50",
"<. c #964E50",
"1. c #9C4E52",
"2. c #935152",
"3. c #9E5153",
"4. c #A0504D",
"5. c #A04F53",
"6. c #A84D50",
"7. c #B04D51",
"8. c #A45254",
"9. c #A95455",
"0. c #AB5957",
"q. c #A55359",
"w. c #AC565B",
"e. c #AC595C",
"r. c #B1565A",
"t. c #B45D5B",
"y. c #BA5F5E",
"u. c #BB605E",
"i. c #A65B60",
"p. c #AE5F66",
"a. c #B55E62",
"s. c #BD6062",
"d. c #B56268",
"f. c #BC666C",
"g. c #C26461",
/* pixels */
"E E ~ Y 0 8 ) ) O + P ( w.w.$.E 2 v w.s.g.u.*...@ o > 1 . * T ^ ",
"E P P G 0 u d d 5 q ! ( q.q.X.~ 2 k 9.y.u.e.X.Y w @ k 2 % = T X.",
"E P z h 7 8 m G e.a.4.:.$.$.^ Y = = :.8.X.T < h o.;.:.#.2 1 I R ",
"P H 1 > 9 0 C P d.f.>.;.$.O.T P % = o.;.Y H > h #.:.8.<.b c I U ",
"2 1 # % c C 1.q.%.$.E T O.^ v 2 > > = = k b J P T E P P <.=.G D ",
"1 > * = Z P q.q.^ E E E ^ E 2 > 1 > X # , k J P T T F H <.=.N N ",
". * S W 1.1.%.$.E E ^ ^ A B % # . # 4 4 O + , z ~ ( K A A A 2 2 ",
"# * S W q.q.$.^ J E ^ E V v > = = ; 0 8 3 O : k L E Z Z V M , , ",
", > * 1 1.q.~ L Z Z A Z = > ;.1.*.o.E U ) ) i a = = # # 1 < a i ",
"< ,   - %.<.L S b b V b # = 5.r.:.:.X.R ` ) d i # . = ; 2 < i s ",
"< < + o 2 2 * * 1 2 1 1 # = :.4.*.+.P F e r [ [ X % o.#.Z c 4 4 ",
"x x 5 @ 1 1 . * x v x 2 = > o.:.o.X.J F 2 e _ ] : 2 :.8.G N 6 4 ",
"X.^ E Y 2 1 1 2 i.d.e.8.P A z k 9 y E E 2 1 $ : ;.8.9.9.:.#.l h ",
"%.%.^ T 2 1 2 V p.f.a.e.^ P z 2 3 9 Y J r , = 2 8.0.8.4.4.;.M z ",
"^ Q ^ P 2 z $.,.( ^ $.%.$.$.^ P < , w t _ { -.8.;.;.:.;.%.O.A A ",
"Q ^ ^ T 2 2 ,.2.Q W O.O.$.O.^ E z < 6 9 _ } 7.e.:.%.*.%.X.E A A ",
"T ~ 8.<.= = L E P E ^ ^ J J T T A N f s s g 6.9.$.$.$.^ B b b b ",
"E ^ <.%.= * A P P E O.^ H F P P A N f i p a -.3.$.O.^ ^ b v c c ",
";.+.2 = 1 1 b M B H 8.q.E J F F A B $ $ : , k b / $./ ! B M v z ",
"%.^ $ # , e c n M F 1.3.Y F B B B b # # > 1 > 2 ! / W K M b n n ",
"k k o 3 ] [ i p r k k l 0 9 $ % # # - - # # 3 4 < k k e @ 3 d ) ",
"x j @ 4 [  .s u r , 1 : 7 4 ; = = < k j # # 6 9 k 2 , : O O d ' ",
"5.1.W G _ _ u 7 # # > >   ; o.>.e.w.5.=.k 2 o.*.X.R @ + : e D D ",
"r.w.~ T | ' 8 7 $ = z k = < *.9.y.a.w.1.k k =.3.$.R 5 @ , k K P ",
"4.-.J F &...h h K ~ 0.0.O.X.+.+.$.O.P K 2 x 8.q.V b H A 2 k X.$.",
";.;.J E o.^ 2 < W ( t.u.<.%.O.X.^ ~ A V j l 1.1.M b S A 2 2 O.;.",
"X.X.X.E b k < < L Q $.%.O.O.E P H A k e g ` Y ^ K B = # . * ^ %.",
"E E ^ E z < - % A P ^ ^ +.O.H F H A , e g d Y E F M # . % < E X.",
"z k z z v k + o # = c N 1.=.> > =.-.6 3 : k ^ X.z < . % Z A v z ",
"2 h z b v k @ +   % c D #.#.$ $ #.&.9 3 < 2 E ^ 2 ; % = A L 2 2 ",
"E J E E b 2 b b . = @.#.2 * o o 5 @ #   . . 2 h 5 5 m B b V Z Z ",
"E E O./ b z B b % = =.=.&   o o o o   # . . < > 3 3 N A b b A A "
};
