/* XPM */
static char *result[] = {
/* columns rows colors chars-per-pixel */
"32 32 7 1 ",
"  c black",
". c #4E346B",
"X c #A269B1",
"o c #DD96C7",
"O c #F6CFDE",
"+ c white",
"@ c None",
/* pixels */
"@@@@@@@@@@@@@@@@@@@@@@@@@@@@@@@@",
"@@@@@@@@@@@@@@@@@@@@@@@@@@@@@@@@",
"@@@@@@@@@@@@@@@@@@@@@@@@@@@@@@@@",
"@@@@@@@@@@@@@@@@@@@@@@@@@@@@@@@@",
"@@@@@@@@@@@@@@@@@@@@@@@@@@@@@@@@",
"@@@@@@@@@@@@@@@@@@@@@@@@@@@@@@@@",
"@@@@@@@@@@@@@@@@@@@@@@@@@@@@@@@@",
"@@@@@@@@@@@@@@@@@@@@@@@@@@@@@@@@",
"@@@@@@@@@@@@@@@@@@@@@@@@@@@@@@@@",
"@@@@@@@@@@@@@@@@@@@@@@@@@@@@@@@@",
"@@@@@@@@@@@@@@@@@@@@@@@@@@@@@@@@",
"@@@@@@@@@@@@@@@@@@@@@@@@@@@@@@@@",
"@@@@@@@@@@@@@@@@@@@@@@@@@@@@@@@@",
"@@@@@@@@@@@@@@@@@@@@@@@@@@@@@@@@",
"@@@@@@@@@@@@@@@@@@@@@@@@@@@@@@@@",
"@@@@@@@@@@+++@@@@@@+++@@@@@@@@@@",
"@@@@@@@@@+XXX++++++...+@@@@@@@@@",
"@@@@@@@@+XOOO..XXX.....+@@@@@@@@",
"@@@@@@@+XOooo.XOOOX.....+@@@@@@@",
"@@@@@@@+XOooo.XooooXX...+@@@@@@@",
"@@@@@@@+XOooo.XoooooXX..+@@@@@@@",
"@@@@@@@@+....XooooooXX.+@@@@@@@@",
"@@@@@@@@+.XXXoooooooXXX.+@@@@@@@",
"@@@@@@@@+XOooo+ ooooXX+.+@@@@@@@",
"@@@@@@@@+XOooo  ooXXXX .+@@@@@@@",
"@@@@@@@@+XOooooooX.o.XX.+@@@@@@@",
"@@@@@@@@+XOooooooXoooXX.+@@@@@@@",
"@@@@@@@@@+XoooooooXXXX.+@@@@@@@@",
"@@@@@@@@@+.XooooXXXXXX.+@@@@@@@@",
"@@@@@@@@@@+.XXXX......+@@@@@@@@@",
"@@@@@@@@@@@+....+....+@@@@@@@@@@",
"@@@@@@@@@@@@++++@++++@@@@@@@@@@@"
};
