/* XPM */
static char *result[] = {
/* columns rows colors chars-per-pixel */
"32 32 5 1 ",
"  c #0B8A8F",
". c #0EAF9B",
"X c #8FF8E2",
"o c white",
"O c None",
/* pixels */
"OOOOOOOOOOOOOOOOOOOOOOOOOOOOOOOO",
"OOOOOOOOOOOOOOOOOOOOOOOOOOOOOOOO",
"OOOOOOOOOOOOOOOOOOOOOOOOOOOOOOOO",
"OOOOOOOOOOOOO   OOOOOOOOOOOOOOOO",
"OOOOOOOOOOOOOO  OOOOOOOOOOOOOOOO",
"OOOOOOOOOOOOOO  OOOOOOOOOOOOOOOO",
"OOOOOOOOOOOOOO. OOOOOOOOOOOOOOOO",
"OOOOOOOOOOOOO .  OOOOOOOOOOOOOOO",
"OOOOOOOOOOOOOO..  OOOOOOOOOOOOOO",
"OOOOOOOOOOOOOO..  OOOOOOOOOOOOOO",
"OOOOOOOOOOOOOXX..  OOOOOOOOOOOOO",
"OOOOOOOOOOOO.oX..  OOOOOOOOOOOOO",
"OOOOOOOOOOOOO.XX..  OOOOOOOOOOOO",
"OOOOOOOOOOOOO..X..  OOOOOOOOOOOO",
"OOOOOOOOOOOOO..X...  OOOOOOOOOOO",
"OOOOOOOOO . .X.oX... OOOOOOOOOOO",
"OOOOOOOOO XX.XXoX..  OOOOOOOOOOO",
"OOOOOOOO .X.X.ooXX..  OOOOOOOOOO",
"OOOOOOO  .oooooooX... OOOOOOOOOO",
"OOOOOOO  XoXoooooXX..  OOOOOOOOO",
"OOOOOOO .XooooooooX..  OOOOOOOOO",
"OOOOOOOO .XoooooooXX..  OOOOOOOO",
"OOOOOOOO .XooooooooX.. OOOOOOOOO",
"OOOOOOOO .XooooooooX.. OOOOOOOOO",
"OOOOOOOO .XXoooooooX..  OOOOOOOO",
"OOOOOOOO .XXooooooXX..  OOOOOOOO",
"OOOOOOOOO ..oXooXXX..   OOOOOOOO",
"OOOOOOOOO .X.XX......  OOOOOOOOO",
"OOOOOOOOO ..........   OOOOOOOOO",
"OOOOOOOOO    ...      OOOOOOOOOO",
"OOOOOOOOOOO          OOOOOOOOOOO",
"OOOOOOOOOOOOO      OOOOOOOOOOOOO"
};
