/* XPM */
static char *_a73b3d82386488db1de7f2bcff4a34diZ2A6sfroUcSKpQ7[] = {
/* columns rows colors chars-per-pixel */
"32 32 5 1 ",
"  c None",
". c #0B8A8F",
"X c #0EAF9B",
"o c #8FF8E2",
"O c white",
/* pixels */
"                                ",
"                                ",
"                                ",
"              .                 ",
"               .                ",
"               .                ",
"               .                ",
"              ...               ",
"              XX...             ",
"             .XX...             ",
"             ooXX..             ",
"             OoXX..             ",
"             XoXX...            ",
"            .XooXX.             ",
"            XOOoXX..            ",
"            XOOooX...           ",
"           .XOOOooX..           ",
"          .XoOOOoXXX.           ",
"         ..XOOOOooXX..          ",
"         ..oOOOOOOXX...         ",
"         .XXOOOOOOoXXX.         ",
"        .XoOOOOOOOoXXX..        ",
"        .oOOOOOOOOOoXX..        ",
"        XoooOOOOOOOoXX..        ",
"       .XXooOOOOOOOoXX..        ",
"       ...ooOOOOOOOoXX..        ",
"         .XoooOOOOoXX...        ",
"         ..XXoooOoXXX..         ",
"         ..XXXXXooXX...         ",
"          ...XXXXX....          ",
"           ..........           ",
"             ......             "
};
