/* XPM */
static char *result[] = {
/* columns rows colors chars-per-pixel */
"32 32 5 1 ",
"  c #0B8A8F",
". c #0EAF9B",
"X c #8FF8E2",
"o c white",
"O c None",
/* pixels */
"OOOOOOOOOOOOOOOOOOOOOOOOOOOOOOOO",
"OOOOOOOOOOOOOOOOOOOOOOOOOOOOOOOO",
"OOOOOOOOOOOOOO OOOOOOOOOOOOOOOOO",
"OOOOOOOOOOOOOOOOOOOOOOOOOOOOOOOO",
"OOOOOOOOOOOOOOOOOOOOOOOOOOOOOOOO",
"OOOOOOOOOOOOOOOOOOOOOOOOOOOOOOOO",
"OOOOOOOOOOOOOOOOOOOOOOOOOOOOOOOO",
"OOOOOOOOOOOOOOOO  OOOOOOOOOOOOOO",
"OOOOOOOOOO OOOOO  OOOOOOOOOOOOOO",
"OOOOOOOOOO OOO     OOOOOOOOOOOOO",
"OOOOOOOOOO    . ..  OOOOOOOOOOOO",
"OOOOOOOOO .OOX.  . OOOOOOOOOOOOO",
"OOOOOOOOO  O O.. .  OOOOOOOOOOOO",
"OOOOOOOOOO   O . .  OOOOOOOOOOOO",
"OOOOOOOOOOO .O. ..   OOOOOOOOOOO",
"OOOOOOOOOOO oX.....  OOOOOOOOOOO",
"OOOOOOOOOOO XoooXX.  OOOOOOOOOOO",
"OOOOOOOOOOOOXoooo..  OOOOOOOOOOO",
"OOOOOOOOOOOO ooooX..  OOOOOOOOOO",
"OOOOOOOOOOO oooooXX.   OOOOOOOOO",
"OOOOOOOOOOO.oooooXX..   OOOOOOOO",
"OOOOOOOOOO .ooooooX...  OOOOOOOO",
"OOOOOOOO O XoooooXoX..  OOOOOOOO",
"OOOOOOOO  .ooooooXoX..  OOOOOOOO",
"OOOOOOOO .XXoooooXXoX.  OOOOOOOO",
"OOOOOOOO ..XooooXXXX..  OOOOOOOO",
"OOOOOOOO  .XXXXoXXXX.   OOOOOOOO",
"OOOOOOOOO ...X...X..   OOOOOOOOO",
"OOOOOOOOO  .........   OOOOOOOOO",
"OOOOOOOOOO   .   .    OOOOOOOOOO",
"OOOOOOOOOOO          OOOOOOOOOOO",
"OOOOOOOOOOOOO      OOOOOOOOOOOOO"
};
