/* XPM */
static char *e491d0bb3ce14af0d67456ec257f6de6HpVjazPQ1oXW8lgw[] = {
/* columns rows colors chars-per-pixel */
"32 32 5 1 ",
"  c None",
". c #0B8A8F",
"X c #0EAF9B",
"o c #8FF8E2",
"O c white",
/* pixels */
"                                ",
"                                ",
"                                ",
"                                ",
"                                ",
"          .  .                  ",
"                                ",
"                                ",
"                  .             ",
"            .    .              ",
"            .oX.XX.             ",
"             OoXXX..            ",
"             XoXXX..            ",
"            .XOoX.X..           ",
"            XoOoXX...           ",
"            XoOooXXX.           ",
"            XOOOoXXX.           ",
"            oXOOooX...          ",
"          .XOOOOOooX..          ",
"         .XXOOOOOooX...         ",
"       . XooOOOOOOooX...        ",
"       ..XoOOOOOOOooXX..        ",
"        .XoOOOOOOOoXX...        ",
"        .XoOOOOOOooXXX..        ",
"        .XooOOOoooXXXX..        ",
"        .XooOOOoooXX....        ",
"        ..XooooOoooXX...        ",
"         .XXXooXooXXX..         ",
"         ..XXXXXXXXX...         ",
"          ...XXXXX....          ",
"           ..........           ",
"             ......             "
};
