/* XPM */
static char *result[] = {
/* columns rows colors chars-per-pixel */
"32 32 5 1 ",
"  c #0B8A8F",
". c #0EAF9B",
"X c #8FF8E2",
"o c white",
"O c None",
/* pixels */
"OOOOOOOOOOOOOOOOOOOOOOOOOOOOOOOO",
"OOOOOOOOOOOOOOOOOOOOOOOOOOOOOOOO",
"OOOOOOOOOOOOOOOOOOOOOOOOOOOOOOOO",
"OOOOOOOOOOOOOOOOOOOOOOOOOOOOOOOO",
"OOOOOOOOOOOOOO. OOOOOOOOOOOOOOOO",
"OOOOOOOOOOOOOO  OOOOOOOOOOOOOOOO",
"OOOOOOOOOOOOOO   OOOOOOOOOOOOOOO",
"OOOOOOOOOOOOOO   OOOOOOOOOOOOOOO",
"OOOOOOOOOOOOOOO. OOOOOOOOOOOOOOO",
"OOOOOOOOOOOOOO..  OOOOOOOOOOOOOO",
"OOOOOOOOOOOOOO..  OOOOOOOOOOOOOO",
"OOOOOOOOOOOOO.X..  OOOOOOOOOOOOO",
"OOOOOOOOOOOOOoX...  OOOOOOOOOOOO",
"OOOOOOOOOOOO oXX..  OOOOOOOOOOOO",
"OOOOOOOOOOOO XoX..  OOOOOOOOOOOO",
"OOOOOOOOOOOO.XoX...  OOOOOOOOOOO",
"OOOOOOOOOOO .oooX..   OOOOOOOOOO",
"OOOOOOOOOO  .oooXX.  OOOOOOOOOOO",
"OOOOOOOOOO .oooooX..  OOOOOOOOOO",
"OOOOOOOOO .XoooooXX.   OOOOOOOOO",
"OOOOOOOOO .ooooooXX... OOOOOOOOO",
"OOOOOOOO .XoooooooXX..  OOOOOOOO",
"OOOOOOOO .XXoooooooX..  OOOOOOOO",
"OOOOOOOO .XooooooooX..  OOOOOOOO",
"OOOOOOOO ..XooooooXX..  OOOOOOOO",
"OOOOOOOO .XXooooooXX..  OOOOOOOO",
"OOOOOOOOO .XXXooXXX...  OOOOOOOO",
"OOOOOOOOO  ..XXXXXX..  OOOOOOOOO",
"OOOOOOOOOO .....XX..   OOOOOOOOO",
"OOOOOOOOOO   .....    OOOOOOOOOO",
"OOOOOOOOOOO          OOOOOOOOOOO",
"OOOOOOOOOOOOO      OOOOOOOOOOOOO"
};
