/* XPM */
static char *result[] = {
/* columns rows colors chars-per-pixel */
"32 32 5 1 ",
"  c #0B8A8F",
". c #0EAF9B",
"X c #8FF8E2",
"o c white",
"O c None",
/* pixels */
"OOOOOOOOOOOOOOOOOOOOOOOOOOOOOOOO",
"OOOOOOOOOOOOOOOOOOOOOOOOOOOOOOOO",
"OOOOOOOOOOOOOOOOOOOOOOOOOOOOOOOO",
"OOOOOOOOOOOOOOOOOOOOOOOOOOOOOOOO",
"OOOOOOOOOOOOOOOOOOOOOOOOOOOOOOOO",
"OOOOOOOOOOOOO OOOOOOOOOOOOOOOOOO",
"OOOOOOOOOOOOO . OOOOOOOOOOOOOOOO",
"OOOOOOOOOOOOOO.  OOOOOOOOOOOOOOO",
"OOOOOOOOOOOOOO.   OOOOOOOOOOOOOO",
"OOOOOOOOOOOOOO..  OOOOOOOOOOOOOO",
"OOOOOOOOOOOOO ..   OOOOOOOOOOOOO",
"OOOOOOOOOOOOO X..  OOOOOOOOOOOOO",
"OOOOOOOOOOOO O.X..  OOOOOOOOOOOO",
"OOOOOOOOOOOO  oX.   OOOOOOOOOOOO",
"OOOOOOOOOOOO XoXX.  OOOOOOOOOOOO",
"OOOOOOOOOOO .ooXX..  OOOOOOOOOOO",
"OOOOOOOOOOOO.oooX..   OOOOOOOOOO",
"OOOOOOOOOO  XoooXX..  OOOOOOOOOO",
"OOOOOOOOOO .ooooXX..  OOOOOOOOOO",
"OOOOOOOOO  .oooooo...  OOOOOOOOO",
"OOOOOOOOO  XoooooXX..  OOOOOOOOO",
"OOOOOOOOO.XoooooooXX.   OOOOOOOO",
"OOOOOOOO .XooooooooX.   OOOOOOOO",
"OOOOOOOO .XooooooooX..  OOOOOOOO",
"OOOOOOOO .XXooooooXX..  OOOOOOOO",
"OOOOOOOO ..XooooooXX..  OOOOOOOO",
"OOOOOOOO  .XXXooXXX..   OOOOOOOO",
"OOOOOOOOO ...XXXXX...  OOOOOOOOO",
"OOOOOOOOO  .........   OOOOOOOOO",
"OOOOOOOOOO   .....    OOOOOOOOOO",
"OOOOOOOOOOO          OOOOOOOOOOO",
"OOOOOOOOOOOOO      OOOOOOOOOOOOO"
};
