/* XPM */
static char *result[] = {
/* columns rows colors chars-per-pixel */
"32 32 5 1 ",
"  c #0B8A8F",
". c #0EAF9B",
"X c #8FF8E2",
"o c white",
"O c None",
/* pixels */
"OOOOOOOOOOOOOOOOOOOOOOOOOOOOOOOO",
"OOOOOOOOOOOOOOOOOOOOOOOOOOOOOOOO",
"OOOOOOOOOOOOOOOOOOOOOOOOOOOOOOOO",
"OOOOOOOOOOOOOO OOOOOOOOOOOOOOOOO",
"OOOOOOOOOOOOOO OOOOOOOOOOOOOOOOO",
"OOOOOOOOOOOOOOOOOOOOOOOOOOOOOOOO",
"OOOOOOOOOOOOOOO  OOOOOOOOOOOOOOO",
"OOOOOOOOOOOOOOO  OOOOOOOOOOOOOOO",
"OOOOOOOOOOOOOOOO  OOOOOOOOOOOOOO",
"OOOOOOOOOO OOOO    OOOOOOOOOOOOO",
"OOOOOOOOOOOOOO     OOOOOOOOOOOOO",
"OOOOOOOOOO. ... ..  OOOOOOOOOOOO",
"OOOOOOOOO .O oX. .  OOOOOOOOOOOO",
"OOOOOOOOO     X. .   OOOOOOOOOOO",
"OOOOOOOOOO  . .X...  OOOOOOOOOOO",
"OOOOOOOOOOO . ...X.  OOOOOOOOOOO",
"OOOOOOOOOOO ooX.oX.   OOOOOOOOOO",
"OOOOOOOOOO .oooooX.   OOOOOOOOOO",
"OOOOOOOOOOOOoooooX..  OOOOOOOOOO",
"OOOOOOOOOOO .oooooX.   OOOOOOOOO",
"OOOOOOOOOOO ooooooX..   OOOOOOOO",
"OOOOOOOOOO .ooooXoX...  OOOOOOOO",
"OOOOOOOO O XoooooXoX..  OOOOOOOO",
"OOOOOOOO  .XoooooXoX..  OOOOOOOO",
"OOOOOOOO  .ooooooXXX..  OOOOOOOO",
"OOOOOOOO ..XooooXXXXX.  OOOOOOOO",
"OOOOOOOO  .XXXooXXXX.   OOOOOOOO",
"OOOOOOOOO ...XXXXX...  OOOOOOOOO",
"OOOOOOOOO  .........   OOOOOOOOO",
"OOOOOOOOOO   .. ..    OOOOOOOOOO",
"OOOOOOOOOOO          OOOOOOOOOOO",
"OOOOOOOOOOOOO      OOOOOOOOOOOOO"
};
