/* XPM */
static char *result[] = {
/* columns rows colors chars-per-pixel */
"32 32 5 1 ",
"  c #0B8A8F",
". c #0EAF9B",
"X c #8FF8E2",
"o c white",
"O c None",
/* pixels */
"OOOOOOOOOOOOOOOOOOOOOOOOOOOOOOOO",
"OOOOOOOOOOOOOOOOOOOOOOOOOOOOOOOO",
"OOOOOOOOOOOOOOOOOOOOOOOOOOOOOOOO",
"OOOOOOOOOOOOOOOOOOOOOOOOOOOOOOOO",
"OOOOOOOOOOOOOOO OOOOOOOOOOOOOOOO",
"OOOOOOOOOOOOOOO OOOOOOOOOOOOOOOO",
"OOOOOOOOOOOOOO   OOOOOOOOOOOOOOO",
"OOOOOOOOOOOOOO.  OOOOOOOOOOOOOOO",
"OOOOOOOOOOOOO ..  OOOOOOOOOOOOOO",
"OOOOOOOOOOOOO...   OOOOOOOOOOOOO",
"OOOOOOOOOOOOOXX.  OOOOOOOOOOOOOO",
"OOOOOOOOOOOOOXX.   OOOOOOOOOOOOO",
"OOOOOOOOOOOO .X..  OOOOOOOOOOOOO",
"OOOOOOOOOOOO ooX..  OOOOOOOOOOOO",
"OOOOOOOOOOOO XoXX.  OOOOOOOOOOOO",
"OOOOOOOOOOO .XoXXX. OOOOOOOOOOOO",
"OOOOOOOOOOO .oooXX.  OOOOOOOOOOO",
"OOOOOOOOOO .ooooXX..  OOOOOOOOOO",
"OOOOOOOOOO .ooooXX..  OOOOOOOOOO",
"OOOOOOOOO   oooooXX..  OOOOOOOOO",
"OOOOOOOOO .XXoooooX... OOOOOOOOO",
"OOOOOOOO XooooooooX...  OOOOOOOO",
"OOOOOOOO.XXooooooooX..  OOOOOOOO",
"OOOOOOO .XXooooooooX..  OOOOOOOO",
"OOOOOOO ..XXoooooooo..  OOOOOOOO",
"OOOOOOO  .XXooooooXX..  OOOOOOOO",
"OOOOOOOOO .XXXooooX..   OOOOOOOO",
"OOOOOOOOO ...XXooX...  OOOOOOOOO",
"OOOOOOOOO  ..X.XXX..   OOOOOOOOO",
"OOOOOOOOOO   .....    OOOOOOOOOO",
"OOOOOOOOOOO          OOOOOOOOOOO",
"OOOOOOOOOOOOO      OOOOOOOOOOOOO"
};
