/* XPM */
static char *_ddad576a3294411c73ff8d03b2eebb4dgu9PNduwXiixKjv[] = {
/* columns rows colors chars-per-pixel */
"32 32 5 1 ",
"  c None",
". c #0B8A8F",
"X c #0EAF9B",
"o c #8FF8E2",
"O c white",
/* pixels */
"                                ",
"                                ",
"                                ",
"                                ",
"              ..                ",
"              X.                ",
"              X.                ",
"              .X.               ",
"              .X..              ",
"               X..              ",
"              XXX. .            ",
"             .oXX..             ",
"            .XooXX..            ",
"            .OoXXX..            ",
"            XOoooX..            ",
"            XOOooXX.            ",
"            XOOooXX..           ",
"           .oOOOooXX..          ",
"          .XoOOOOoXX...         ",
"         ..oOOOOOooXX..         ",
"         .XOOOOOOooXXX.         ",
"        .XoOOOOOOOooXX..        ",
"        .XoOOOOOOOOoXX..        ",
"        .XoOOOOOOOOoXX..        ",
"        .XoOOOOOOOooXX..        ",
"        ..XoOOOOOOooXX..        ",
"         .XoooOOoooXX...        ",
"         ..XXoooooXXX..         ",
"         ..XXXXXXXXX...         ",
"          ...XXXXX....          ",
"           ..........           ",
"             ......             "
};
