/* XPM */
static char *cc350715b2fc4860d9afbeb9e02b5fcd9fciJQdl0iJXHyMX[] = {
/* columns rows colors chars-per-pixel */
"32 32 5 1 ",
"  c None",
". c #0B8A8F",
"X c #0EAF9B",
"o c #8FF8E2",
"O c white",
/* pixels */
"                                ",
"                                ",
"                                ",
"                                ",
"                                ",
"                                ",
"                                ",
"                                ",
"             X.                 ",
"             XXXX.              ",
"             .XX...             ",
"              oXX...            ",
"            .XoXX...            ",
"            .XOoXXX.            ",
"            XoOooXX..           ",
"            XXOooXX..           ",
"           .XoOOoXXX.           ",
"          ..XOOOoXXX..          ",
"         .XXOOOOooXX..          ",
"       . .XXOOOOOooXX..         ",
"         .XoOOOOOOoXX..         ",
"        .XoOOOOOOOoXX...        ",
"        .XoOOOOOOooXX...        ",
"        .XoOOOOOOooXX...        ",
"        .XooOOOOOOooX...        ",
"        .XXoOOOOOOooX...        ",
"        ..XooooooooXX...        ",
"         .XXXoooooXXX..         ",
"         ..XXXXXXXXX...         ",
"          ...XXXXX....          ",
"           ..........           ",
"             ......             "
};
