/* XPM */
static char *result[] = {
/* columns rows colors chars-per-pixel */
"32 32 5 1 ",
"  c #0B8A8F",
". c #0EAF9B",
"X c #8FF8E2",
"o c white",
"O c None",
/* pixels */
"OOOOOOOOOOOOOOOOOOOOOOOOOOOOOOOO",
"OOOOOOOOOOOOOOOOOOOOOOOOOOOOOOOO",
"OOOOOOOOOOOOOOOOOOOOOOOOOOOOOOOO",
"OOOOOOOOOOOOOO  OOOOOOOOOOOOOOOO",
"OOOOOOOOOOOOOO  OOOOOOOOOOOOOOOO",
"OOOOOOOOOOOOO   OOOOOOOOOOOOOOOO",
"OOOOOOOOOOOOO . OOOOOOOOOOOOOOOO",
"OOOOOOOOOOOOO  . OOOOOOOOOOOOOOO",
"OOOOOOOOOOOOOOO.  OOOOOOOOOOOOOO",
"OOOOOOOOOOOOOOO.. OOOOOOOOOOOOOO",
"OOOOOOOOOOOOO O .  OOOOOOOOOOOOO",
"OOOOOOOOO . OOO .  OOOOOOOOOOOOO",
"OOOOOOOOO    O....  OOOOOOOOOOOO",
"OOOOOOOOOO..XXoX... OOOOOOOOOOOO",
"OOOOOOOOO X .ooX... OOOOOOOOOOOO",
"OOOOOOOOO . ..ooX..  OOOOOOOOOOO",
"OOOOOOOOOO ...XoX..  OOOOOOOOOOO",
"OOOOOOOOOO .o.XooX..  OOOOOOOOOO",
"OOOOOOOOOO .oooXoX..   OOOOOOOOO",
"OOOOOOOOOO.XoooooXX..  OOOOOOOOO",
"OOOOOOOOOO .oooooXX... OOOOOOOOO",
"OOOOOOOOOO .ooooooXX.. OOOOOOOOO",
"OOOOOOOOOO .oooooooX..  OOOOOOOO",
"OOOOOOOO  .XoooooXXX..  OOOOOOOO",
"OOOOOOOO  .XooooXXXX..  OOOOOOOO",
"OOOOOOOO  .XooooXXXX..  OOOOOOOO",
"OOOOOOOO  .XXXoXXXX..   OOOOOOOO",
"OOOOOOOOO ...XX......  OOOOOOOOO",
"OOOOOOOOO  .........   OOOOOOOOO",
"OOOOOOOOOO   .....    OOOOOOOOOO",
"OOOOOOOOOOO          OOOOOOOOOOO",
"OOOOOOOOOOOOO      OOOOOOOOOOOOO"
};
