/* XPM */
static char *result[] = {
/* columns rows colors chars-per-pixel */
"32 32 5 1 ",
"  c #0B8A8F",
". c #0EAF9B",
"X c #8FF8E2",
"o c white",
"O c None",
/* pixels */
"OOOOOOOOOOOOOOOOOOOOOOOOOOOOOOOO",
"OOOOOOOOOOOOOO OOOOOOOOOOOOOOOOO",
"OOOOOOOOOOOOOO OOOOOOOOOOOOOOOOO",
"OOOOOOOOOOOOOO  OOOOOOOOOOOOOOOO",
"OOOOOOOOOOOOOO. OOOOOOOOOOOOOOOO",
"OOOOOOOOOOOOOO  OOOOOOOOOOOOOOOO",
"OOOOOOOOOOOOO . OOOOOOOOOOOOOOOO",
"OOOOOOOOOOOOO .  OOOOOOOOOOOOOOO",
"OOOOOOOOOOOOO  ..  OOOOOOOOOOOOO",
"OOOOOOOOOOOOOOO.  OOOOOOOOOOOOOO",
"OOOOOOOOOOOOOOO.   OOOOOOOOOOOOO",
"OOOOOOOOOOOOO O .   OOOOOOOOOOOO",
"OOOOOOOOO .    ... OOOOOOOOOOOOO",
"OOOOOOOOO  .  XX..  OOOOOOOOOOOO",
"OOOOOOOOOO..XXooX.   OOOOOOOOOOO",
"OOOOOOOOO o .ooo.X.. OOOOOOOOOOO",
"OOOOOOOOO . ..oooX.  OOOOOOOOOOO",
"OOOOOOOOOO .X.XooX..  OOOOOOOOOO",
"OOOOOOOOOO Xo.oooX..   OOOOOOOOO",
"OOOOOOOOO .XoooooXX..  OOOOOOOOO",
"OOOOOOOOO .oooooooX..  OOOOOOOOO",
"OOOOOOOOO ..ooooooX... OOOOOOOOO",
"OOOOOOOOOO .oooooooX..  OOOOOOOO",
"OOOOOOOOO .XoooooXoX..  OOOOOOOO",
"OOOOOOOO  .ooooXXXXX..  OOOOOOOO",
"OOOOOOOO  .XooooXXXX..  OOOOOOOO",
"OOOOOOOO  .XXXoXX.X..   OOOOOOOO",
"OOOOOOOOO ...XXX.....  OOOOOOOOO",
"OOOOOOOOO  .........   OOOOOOOOO",
"OOOOOOOOOO   .....    OOOOOOOOOO",
"OOOOOOOOOOO          OOOOOOOOOOO",
"OOOOOOOOOOOOO      OOOOOOOOOOOOO"
};
