/* XPM */
static char *result[] = {
/* columns rows colors chars-per-pixel */
"32 32 5 1 ",
"  c #0B8A8F",
". c #0EAF9B",
"X c #8FF8E2",
"o c white",
"O c None",
/* pixels */
"OOOOOOOOOOOOOOOOOOOOOOOOOOOOOOOO",
"OOOOOOOOOOOOOOOOOOOOOOOOOOOOOOOO",
"OOOOOOOOOOOOOOOOOOOOOOOOOOOOOOOO",
"OOOOOOOOOOOOOOOOOOOOOOOOOOOOOOOO",
"OOOOOOOOOOOOOO   OOOOOOOOOOOOOOO",
"OOOOOOOOOOOOO   OOOOOOOOOOOOOOOO",
"OOOOOOOOOOOOO    OOOOOOOOOOOOOOO",
"OOOOOOOOOOOOO .  OOOOOOOOOOOOOOO",
"OOOOOOOOOOOOOO.  OOOOOOOOOOOOOOO",
"OOOOOOOOOOOOO...  OOOOOOOOOOOOOO",
"OOOOOOOOOOOOO X..  OOOOOOOOOOOOO",
"OOOOOOOOOOOOO X... OOOOOOOOOOOOO",
"OOOOOOOOOOOO oXX..  OOOOOOOOOOOO",
"OOOOOOOOOOO XoXX..  OOOOOOOOOOOO",
"OOOOOOOOOOO  XoX..  OOOOOOOOOOOO",
"OOOOOOOOOOOO XXoX.. OOOOOOOOOOOO",
"OOOOOOOOOOOO XXoX...  OOOOOOOOOO",
"OOOOOOOOO ..XoooXX..  OOOOOOOOOO",
"OOOOOOOO .oooooooX..  OOOOOOOOOO",
"OOOOOOO .XoooooooXX.. OOOOOOOOOO",
"OOOOOOO .XooooooooX..  OOOOOOOOO",
"OOOOOOO .Xooooooooo...  OOOOOOOO",
"OOOOOOO .XoooooooooX..  OOOOOOOO",
"OOOOOOOO .XooooooooX..  OOOOOOOO",
"OOOOOOOO .XXooooooXX..  OOOOOOOO",
"OOOOOOOO ..XXoooooXX.. OOOOOOOOO",
"OOOOOOOO  .XXXooooX..   OOOOOOOO",
"OOOOOOOO  .X.XXXXX...  OOOOOOOOO",
"OOOOOOOOO ..........   OOOOOOOOO",
"OOOOOOOOOO   .. ..    OOOOOOOOOO",
"OOOOOOOOOOO          OOOOOOOOOOO",
"OOOOOOOOOOOOO      OOOOOOOOOOOOO"
};
