/* XPM */
static char *result[] = {
/* columns rows colors chars-per-pixel */
"32 32 5 1 ",
"  c #0B8A8F",
". c #0EAF9B",
"X c #8FF8E2",
"o c white",
"O c None",
/* pixels */
"OOOOOOOOOOOOOOOOOOOOOOOOOOOOOOOO",
"OOOOOOOOOOOOOO OOOOOOOOOOOOOOOOO",
"OOOOOOOOOOOOOO OOOOOOOOOOOOOOOOO",
"OOOOOOOOOOOOOO OOOOOOOOOOOOOOOOO",
"OOOOOOOOOOOOOO  OOOOOOOOOOOOOOOO",
"OOOOOOOOOOOOOO. OOOOOOOOOOOOOOOO",
"OOOOOOOOOOOOOO. OOOOOOOOOOOOOOOO",
"OOOOOOOOOOOOO .   OOOOOOOOOOOOOO",
"OOOOOOOOOOOOO.. . OOOOOOOOOOOOOO",
"OOOOOOOOOOOOO  ..  OOOOOOOOOOOOO",
"OOOOOOOOOOOOO O..  OOOOOOOOOOOOO",
"OOOOOOOOOOOOOOO..   OOOOOOOOOOOO",
"OOOOOOOOOO O . ...  OOOOOOOOOOOO",
"OOOOOOOOO .. . .... OOOOOOOOOOOO",
"OOOOOOOOO. .. oo...  OOOOOOOOOOO",
"OOOOOOOOO .XooooX..   OOOOOOOOOO",
"OOOOOOOOO o .ooooX.. OOOOOOOOOOO",
"OOOOOOOOO.X.XooooX..  OOOOOOOOOO",
"OOOOOOOOO .Xo.oooX..  OOOOOOOOOO",
"OOOOOOOOO .ooXoooX...  OOOOOOOOO",
"OOOOOOOOO .oooooooX..  OOOOOOOOO",
"OOOOOOOOO XooooooooX.   OOOOOOOO",
"OOOOOOOOO.XXoooooooX..  OOOOOOOO",
"OOOOOOOOO .XoooooooX..  OOOOOOOO",
"OOOOOOOO  .XoooXoXXX..  OOOOOOOO",
"OOOOOOOO  .XoooXX.XX..  OOOOOOOO",
"OOOOOOOO  .XXXoXX.X..   OOOOOOOO",
"OOOOOOOOO  X.XXX.....  OOOOOOOOO",
"OOOOOOOOO ..........   OOOOOOOOO",
"OOOOOOOOOO   .....    OOOOOOOOOO",
"OOOOOOOOOOO          OOOOOOOOOOO",
"OOOOOOOOOOOOO      OOOOOOOOOOOOO"
};
