/* XPM */
static char *result[] = {
/* columns rows colors chars-per-pixel */
"32 32 5 1 ",
"  c #0B8A8F",
". c #0EAF9B",
"X c #8FF8E2",
"o c white",
"O c None",
/* pixels */
"OOOOOOOOOOOOOOOOOOOOOOOOOOOOOOOO",
"OOOOOOOOOOOOOOOOOOOOOOOOOOOOOOOO",
"OOOOOOOOOOOOOOOOOOOOOOOOOOOOOOOO",
"OOOOOOOOOOOOOOOOOOOOOOOOOOOOOOOO",
"OOOOOOOOOOOOOOOOOOOOOOOOOOOOOOOO",
"OOOOOOOOOOOOOOOOOOOOOOOOOOOOOOOO",
"OOOOOOOOOOOOOOOOOOOOOOOOOOOOOOOO",
"OOOOOOOOOOOOOOOOOOOOOOOOOOOOOOOO",
"OOOOOOOOOOOO OOOOOOOOOOOOOOOOOOO",
"OOOOOOOOOOOO . O.  OOOOOOOOOOOOO",
"OOOOOOOOOOOOOX... OOOOOOOOOOOOOO",
"OOOOOOOOOOOOO X..  OOOOOOOOOOOOO",
"OOOOOOOOOOOOOOX..   OOOOOOOOOOOO",
"OOOOOOOOOOOO .oX..   OOOOOOOOOOO",
"OOOOOOOOOOOO XoX... OOOOOOOOOOOO",
"OOOOOOOOOOOO.XoXX... OOOOOOOOOOO",
"OOOOOOOOOOOO..ooX..  OOOOOOOOOOO",
"OOOOOOOOOOO XooooX..  OOOOOOOOOO",
"OOOOOOOO O .XooooX..  OOOOOOOOOO",
"OOOOOOOOO ..oooooX...  OOOOOOOOO",
"OOOOOOO O .XooooooX... OOOOOOOOO",
"OOOOOOOO .XoooooooX..   OOOOOOOO",
"OOOOOOOO .XooooooXX...  OOOOOOOO",
"OOOOOOOO .XooooooXX...  OOOOOOOO",
"OOOOOOOO .XXoooooX...   OOOOOOOO",
"OOOOOOOO ..XooooooXX.   OOOOOOOO",
"OOOOOOOO  .XXXXXXXX..   OOOOOOOO",
"OOOOOOOOO ...X..XX...  OOOOOOOOO",
"OOOOOOOOO  .........   OOOOOOOOO",
"OOOOOOOOOO   .....    OOOOOOOOOO",
"OOOOOOOOOOO          OOOOOOOOOOO",
"OOOOOOOOOOOOO      OOOOOOOOOOOOO"
};
