/* XPM */
static char *result[] = {
/* columns rows colors chars-per-pixel */
"32 32 5 1 ",
"  c #0B8A8F",
". c #0EAF9B",
"X c #8FF8E2",
"o c white",
"O c None",
/* pixels */
"OOOOOOOOOOOOOOOOOOOOOOOOOOOOOOOO",
"OOOOOOOOOOOOOOOOOOOOOOOOOOOOOOOO",
"OOOOOOOOOOOOOOOOOOOOOOOOOOOOOOOO",
"OOOOOOOOOOOOOOOOOOOOOOOOOOOOOOOO",
"OOOOOOOOOOOOOOOOOOOOOOOOOOOOOOOO",
"OOOOOOOOOOOOOOOOOOOOOOOOOOOOOOOO",
"OOOOOOOOOOOOOOOO OOOOOOOOOOOOOOO",
"OOOOOOOOOOOOOOOO  OOOOOOOOOOOOOO",
"OOOOOOOOOOOOO  OOOOOOOOOOOOOOOOO",
"OOOOOOOOOO OO. OOO OOOOOOOOOOOOO",
"OOOOOOOOOO OOO  O.OOOOOOOOOOOOOO",
"OOOOOOOOOOO OOO O. OOOOOOOOOOOOO",
"OOOOOOOOOOOO OOOO.  OOOOOOOOOOOO",
"OOOOOOOOOOOOX. O .  OOOOOOOOOOOO",
"OOOOOOOOOOO .ooXX.. OOOOOOOOOOOO",
"OOOOOOOOOOOO.oooXX.  OOOOOOOOOOO",
"OOOOOOOOOOOO ooXXX.  OOOOOOOOOOO",
"OOOOOOOOOOOO.oooXX.   OOOOOOOOOO",
"OOOOOOOOOOO oooooX..  OOOOOOOOOO",
"OOOOOOOOOOO oooooXX.   OOOOOOOOO",
"OOOOOOOOOOO ooooooXX.  OOOOOOOOO",
"OOOOOOOOOO oooooooX...  OOOOOOOO",
"OOOOOOOO .XooooooXoXX.  OOOOOOOO",
"OOOOOOO  .Xooooooooo..  OOOOOOOO",
"OOOOOOOO .XXooooooXX..  OOOOOOOO",
"OOOOOOOO ..XoXoXXoXX..  OOOOOOOO",
"OOOOOOOO  .XXXXXXX..    OOOOOOOO",
"OOOOOOOOO ...X.......  OOOOOOOOO",
"OOOOOOOOO  .......     OOOOOOOOO",
"OOOOOOOOOO   .....    OOOOOOOOOO",
"OOOOOOOOOOO          OOOOOOOOOOO",
"OOOOOOOOOOOOO      OOOOOOOOOOOOO"
};
