/* XPM */
static char *_9b21d5080804710b36ef4c45c23945078sPHySLXconh6V0[] = {
/* columns rows colors chars-per-pixel */
"32 32 5 1 ",
"  c None",
". c #0B8A8F",
"X c #0EAF9B",
"o c #8FF8E2",
"O c white",
/* pixels */
"                                ",
"                                ",
"                                ",
"                                ",
"                                ",
"             .X                 ",
"              X..               ",
"              X..               ",
"              X...              ",
"              XX..              ",
"             .XX...             ",
"              .XX...            ",
"            . OoX...            ",
"             XOoXX..            ",
"            XoOoXXX..           ",
"            XOOooXX..           ",
"           .XOOooXX..           ",
"          ..XOOOooXX.           ",
"          .XOOOOooXX...         ",
"           XOOOOOooXX..         ",
"         .XoOOOOOOooX..         ",
"         XoOOOOOOOooX..         ",
"        .XoOOOOOOOOoXX..        ",
"        .XoOOOOOOOOoXX..        ",
"        .XooOOOOOOooXX..        ",
"        .XXoOOOOOOooXX..        ",
"        ..XoOoOOoooXX...        ",
"         .XXXoooooXXX..         ",
"          .XXXXXXXXX...         ",
"          ...XXXXX....          ",
"           ..........           ",
"             ......             "
};
