/* XPM */
static char *_e9d7f1cf1ce49cbece323f10da997d2qM1DoRoN1VTnnBCn[] = {
/* columns rows colors chars-per-pixel */
"32 32 5 1 ",
"  c None",
". c #0B8A8F",
"X c #0EAF9B",
"o c #8FF8E2",
"O c white",
/* pixels */
"                                ",
"                                ",
"                                ",
"                                ",
"                                ",
"                                ",
"                .               ",
"                ..              ",
"              ....              ",
"          . .X.....             ",
"          X  oX. ..             ",
"         .X   X..X.             ",
"            . .X.X..            ",
"           .X ...XX.            ",
"           .ooX.XXX.            ",
"           .XOOOoXX..           ",
"            XOOOOoX..           ",
"            .OOOOoXX..          ",
"            oOOOOooX..          ",
"           .OOOOOoXX...         ",
"           XOOOOOOooX..         ",
"          .XOOOOOOoXXX..        ",
"        . .OOOOOOOOoXX..        ",
"        .XoOOOOOOoOOoX..        ",
"        .XooOOOOOOooXX..        ",
"        .XXoOOOOoOooXX..        ",
"        ..XooooooooXX...        ",
"         .XXXoXXXXXX...         ",
"         ..XXXXXXX.X...         ",
"          ...XX.......          ",
"           ..........           ",
"             ......             "
};
