/* XPM */
static char *result[] = {
/* columns rows colors chars-per-pixel */
"32 32 5 1 ",
"  c #0B8A8F",
". c #0EAF9B",
"X c #8FF8E2",
"o c white",
"O c None",
/* pixels */
"OOOOOOOOOOOOOOOOOOOOOOOOOOOOOOOO",
"OOOOOOOOOOOOOOOOOOOOOOOOOOOOOOOO",
"OOOOOOOOOOOOOOOOOOOOOOOOOOOOOOOO",
"OOOOOOOOOOOOOOOOOOOOOOOOOOOOOOOO",
"OOOOOOOOOOOOOOO OOOOOOOOOOOOOOOO",
"OOOOOOOOOOOOOO  OOOOOOOOOOOOOOOO",
"OOOOOOOOOOOOO .   OOOOOOOOOOOOOO",
"OOOOOOOOOOOOO .   OOOOOOOOOOOOOO",
"OOOOOOOOOOOOO..  OOOOOOOOOOOOOOO",
"OOOOOOOOOOOOO..   OOOOOOOOOOOOOO",
"OOOOOOOOOOOOO ... OOOOOOOOOOOOOO",
"OOOOOOOOOOOOOXX..  OOOOOOOOOOOOO",
"OOOOOOOOOOOOO.XX.. OOOOOOOOOOOOO",
"OOOOOOOOOOOO .oX..  OOOOOOOOOOOO",
"OOOOOOOOOOO .oXXX.. OOOOOOOOOOOO",
"OOOOOOOOOOO ooooXX. OOOOOOOOOOOO",
"OOOOOOOOOOO .oooXX.  OOOOOOOOOOO",
"OOOOOOOOOOOO.oooXX..  OOOOOOOOOO",
"OOOOOOOOOO  .oooXX..  OOOOOOOOOO",
"OOOOOOOO .oXoooooXX.   OOOOOOOOO",
"OOOOOOO .XooooooooX..  OOOOOOOOO",
"OOOOOOO .XooooooooX...  OOOOOOOO",
"OOOOOOO .XoooooooooXX.  OOOOOOOO",
"OOOOOOO .XXooooooooX..  OOOOOOOO",
"OOOOOOOO .XXooooooXX..  OOOOOOOO",
"OOOOOOOO ..XooooooXX..  OOOOOOOO",
"OOOOOOOO  .XXoooooX..  OOOOOOOOO",
"OOOOOOOOO ...XoooXX..  OOOOOOOOO",
"OOOOOOOOO  ......X..   OOOOOOOOO",
"OOOOOOOOOO   .....    OOOOOOOOOO",
"OOOOOOOOOOO          OOOOOOOOOOO",
"OOOOOOOOOOOOO      OOOOOOOOOOOOO"
};
