/* XPM */
static char *result[] = {
/* columns rows colors chars-per-pixel */
"32 32 5 1 ",
"  c #0B8A8F",
". c #0EAF9B",
"X c #8FF8E2",
"o c white",
"O c None",
/* pixels */
"OOOOOOOOOOOOOOOOOOOOOOOOOOOOOOOO",
"OOOOOOOOOOOOOOOOOOOOOOOOOOOOOOOO",
"OOOOOOOOOOOOOOOOOOOOOOOOOOOOOOOO",
"OOOOOOOOOOOOOOOOOOOOOOOOOOOOOOOO",
"OOOOOOOOOOOOOOOOOOOOOOOOOOOOOOOO",
"OOOOOOOOOOOOOOOOOOOOOOOOOOOOOOOO",
"OOOOOOOOOOOOO OOOOOOOOOOOOOOOOOO",
"OOOOOOOOOOOOO  OOOOOOOOOOOOOOOOO",
"OOOOOOOOOOOOOO OOOOOOOOOOOOOOOOO",
"OOOOOOOOOOOOOOOOOOOOOOOOOOOOOOOO",
"OOOOOOOOOOOOOOOOO  OOOOOOOOOOOOO",
"OOOOOOOOOOOO. OO .  OOOOOOOOOOOO",
"OOOOOOOOOOOO oX... OOOOOOOOOOOOO",
"OOOOOOOOOOOO oXXX.  OOOOOOOOOOOO",
"OOOOOOOOOOOOOXoXX..  OOOOOOOOOOO",
"OOOOOOOOOOOO.XoX...  OOOOOOOOOOO",
"OOOOOOOOOOOO.ooXX... OOOOOOOOOOO",
"OOOOOOOOOOOOXoooX...  OOOOOOOOOO",
"OOOOOOOOOOOOoooooX... OOOOOOOOOO",
"OOOOOOOOOOO.oooooXX..  OOOOOOOOO",
"OOOOOOOOO .XooooooX..  OOOOOOOOO",
"OOOOOOO  .XoooooooXX.   OOOOOOOO",
"OOOOOOOO .XoooooooXX..  OOOOOOOO",
"OOOOOOO  .XooooooooX..  OOOOOOOO",
"OOOOOOOO .XXoooXoXXX.   OOOOOOOO",
"OOOOOOOO ..XoooXXX...   OOOOOOOO",
"OOOOOOOO  .XXXXXX....   OOOOOOOO",
"OOOOOOOOO ...XX.X...   OOOOOOOOO",
"OOOOOOOOO  .........   OOOOOOOOO",
"OOOOOOOOOO   .....    OOOOOOOOOO",
"OOOOOOOOOOO          OOOOOOOOOOO",
"OOOOOOOOOOOOO      OOOOOOOOOOOOO"
};
