/* XPM */
static char *_5f30e02b3dc4f8bba27a0295c77d7a5QqJHFeOLpQTxz5Kl[] = {
/* columns rows colors chars-per-pixel */
"32 32 5 1 ",
"  c None",
". c #0B8A8F",
"X c #0EAF9B",
"o c #8FF8E2",
"O c white",
/* pixels */
"                                ",
"                                ",
"                                ",
"                                ",
"                                ",
"                                ",
"                                ",
"             ..                 ",
"          .  X.                 ",
"          .   .. .              ",
"               . ..             ",
"            .    X.             ",
"            oX  .X..            ",
"            XOOXXX..            ",
"            XOOooXX..           ",
"             oOooXX..           ",
"            XoOooXX..           ",
"            oOOOoXX...          ",
"            OOOOoooX..          ",
"           .OOOOOooXX..         ",
"           oOOOOOOoXX..         ",
"        ..oOOOOOOOOoXX..        ",
"       ..XoOOOOOOOOoXX..        ",
"        .XoOOOOOOOOoXX..        ",
"       ..XooOOOOOOooXX..        ",
"        .XXoOoOooooX....        ",
"        ..XooooXoXXXX...        ",
"         .XXXoXXXXXX...         ",
"         ..XXXXXXX.....         ",
"          ...XXXXX...           ",
"           ..........           ",
"             ......             "
};
