/* XPM */
static char *result[] = {
/* columns rows colors chars-per-pixel */
"32 32 5 1 ",
"  c #0B8A8F",
". c #0EAF9B",
"X c #8FF8E2",
"o c white",
"O c None",
/* pixels */
"OOOOOOOOOOOOOOOOOOOOOOOOOOOOOOOO",
"OOOOOOOOOOOOOOOOOOOOOOOOOOOOOOOO",
"OOOOOOOOOOOOOOOOOOOOOOOOOOOOOOOO",
"OOOOOOOOOOOOOO OOOOOOOOOOOOOOOOO",
"OOOOOOOOOOOOOO  OOOOOOOOOOOOOOOO",
"OOOOOOOOOOOOO . OOOOOOOOOOOOOOOO",
"OOOOOOOOOOOOO O OOOOOOOOOOOOOOOO",
"OOOOOOOOOOOOOOO.  OOOOOOOOOOOOOO",
"OOOOOOOOOOOOOOO.. OOOOOOOOOOOOOO",
"OOOOOOOOOOOOOOO    OOOOOOOOOOOOO",
"OOOOOOOOOO. OOO .  OOOOOOOOOOOOO",
"OOOOOOOOO   OO...   OOOOOOOOOOOO",
"OOOOOOOOOO....X..   OOOOOOOOOOOO",
"OOOOOOOOOO.  oo. .  OOOOOOOOOOOO",
"OOOOOOOOO.  . oX...  OOOOOOOOOOO",
"OOOOOOOOOO  . .o...  OOOOOOOOOOO",
"OOOOOOOOOOO.X.XoX..  OOOOOOOOOOO",
"OOOOOOOOOO .ooXXoX.   OOOOOOOOOO",
"OOOOOOOOOO .oooooXX.   OOOOOOOOO",
"OOOOOOOOOOO oooooXX..  OOOOOOOOO",
"OOOOOOOOOOO XoooooX..  OOOOOOOOO",
"OOOOOOOOOO .ooooooo...  OOOOOOOO",
"OOOOOOOO O XoooooXoX..  OOOOOOOO",
"OOOOOOOO  .XoooooXoX..  OOOOOOOO",
"OOOOOOOO  .XoooooXXX..  OOOOOOOO",
"OOOOOOOO  .XooooXXXX..  OOOOOOOO",
"OOOOOOOO  .XXXoXX.XX.   OOOOOOOO",
"OOOOOOOOO ...XXX.X...  OOOOOOOOO",
"OOOOOOOOO  .........   OOOOOOOOO",
"OOOOOOOOOO   .....    OOOOOOOOOO",
"OOOOOOOOOOO          OOOOOOOOOOO",
"OOOOOOOOOOOOO      OOOOOOOOOOOOO"
};
