/* XPM */
static char *result[] = {
/* columns rows colors chars-per-pixel */
"32 32 5 1 ",
"  c #0B8A8F",
". c #0EAF9B",
"X c #8FF8E2",
"o c white",
"O c None",
/* pixels */
"OOOOOOOOOOOOOOOOOOOOOOOOOOOOOOOO",
"OOOOOOOOOOOOOOOOOOOOOOOOOOOOOOOO",
"OOOOOOOOOOOOOO OOOOOOOOOOOOOOOOO",
"OOOOOOOOOOOOOO OOOOOOOOOOOOOOOOO",
"OOOOOOOOOOOOOO  OOOOOOOOOOOOOOOO",
"OOOOOOOOOOOOOO  OOOOOOOOOOOOOOOO",
"OOOOOOOOOOOOO    OOOOOOOOOOOOOOO",
"OOOOOOOOOOOOOO.   OOOOOOOOOOOOOO",
"OOOOOOOOOOOOOO.   OOOOOOOOOOOOOO",
"OOOOOOOOOOOOO.... OOOOOOOOOOOOOO",
"OOOOOOOOOOOO XX..  OOOOOOOOOOOOO",
"OOOOOOOOOOOOO....  OOOOOOOOOOOOO",
"OOOOOOOOOOOOO. X..  OOOOOOOOOOOO",
"OOOOOOOOOOOOO. X..  OOOOOOOOOOOO",
"OOOOOOOOOO  .X.XX..  OOOOOOOOOOO",
"OOOOOOOOO o..XXoX..  OOOOOOOOOOO",
"OOOOOOOOO ....ooX...  OOOOOOOOOO",
"OOOOOOO  .XooooooX..  OOOOOOOOOO",
"OOOOOOOO .o.oooooX..  OOOOOOOOOO",
"OOOOOOOO XoXoooooXX..  OOOOOOOOO",
"OOOOOOOO  XoooooooX..   OOOOOOOO",
"OOOOOOOO .XoooooooXX.. OOOOOOOOO",
"OOOOOOOO .XooooooooX.. OOOOOOOOO",
"OOOOOOOO .XooooooooX.   OOOOOOOO",
"OOOOOOOOO.XoooooooXX..  OOOOOOOO",
"OOOOOOOOO .XooooooXX..  OOOOOOOO",
"OOOOOOOO  ..XXXXXXX..   OOOOOOOO",
"OOOOOOOOO ...XX......  OOOOOOOOO",
"OOOOOOOOO ..........   OOOOOOOOO",
"OOOOOOOOO    .....    OOOOOOOOOO",
"OOOOOOOOOOO          OOOOOOOOOOO",
"OOOOOOOOOOOOO      OOOOOOOOOOOOO"
};
