/* XPM */
static char *result[] = {
/* columns rows colors chars-per-pixel */
"32 32 5 1 ",
"  c #0B8A8F",
". c #0EAF9B",
"X c #8FF8E2",
"o c white",
"O c None",
/* pixels */
"OOOOOOOOOOOOOOOOOOOOOOOOOOOOOOOO",
"OOOOOOOOOOOOOOOOOOOOOOOOOOOOOOOO",
"OOOOOOOOOOOOOOOOOOOOOOOOOOOOOOOO",
"OOOOOOOOOOOOOOOOOOOOOOOOOOOOOOOO",
"OOOOOOOOOOOOOOOOOOOOOOOOOOOOOOOO",
"OOOOOOOOOOOOOOOOOOOOOOOOOOOOOOOO",
"OOOOOOOOOOOOOOOOOOOOOOOOOOOOOOOO",
"OOOOOOOOOOOOO  OOOOOOOOOOOOOOOOO",
"OOOOOOOOOOOOO...  OOOOOOOOOOOOOO",
"OOOOOOOOOOOOOO..   OOOOOOOOOOOOO",
"OOOOOOOOOOOOOOX.. OOOOOOOOOOOOOO",
"OOOOOOOOOOOOO X.    OOOOOOOOOOOO",
"OOOOOOOOOOOOO.oX.   OOOOOOOOOOOO",
"OOOOOOOOOOOO .oX.    OOOOOOOOOOO",
"OOOOOOOOOOOO. oX...  OOOOOOOOOOO",
"OOOOOOOOOOOO.XoX...  OOOOOOOOOOO",
"OOOOOOOOOOO .ooXX...  OOOOOOOOOO",
"OOOOOOOOOO  XoooXX..  OOOOOOOOOO",
"OOOOOOOOOO .oooooX..   OOOOOOOOO",
"OOOOOOOOO ..oooooXX..  OOOOOOOOO",
"OOOOOOOOO .XooooooX..  OOOOOOOOO",
"OOOOOOOO .XoooooooX..   OOOOOOOO",
"OOOOOOOO .XoooooooX..   OOOOOOOO",
"OOOOOOOO .XoooooooXX.   OOOOOOOO",
"OOOOOOOO .XXooooooXX.   OOOOOOOO",
"OOOOOOOO ..XoXooooXX..  OOOOOOOO",
"OOOOOOOO  .XXXooXXX..   OOOOOOOO",
"OOOOOOOOO ...XXXXX...  OOOOOOOOO",
"OOOOOOOOO  .........   OOOOOOOOO",
"OOOOOOOOOO   .....    OOOOOOOOOO",
"OOOOOOOOOOO          OOOOOOOOOOO",
"OOOOOOOOOOOOO      OOOOOOOOOOOOO"
};
