/* XPM */
static char *result[] = {
/* columns rows colors chars-per-pixel */
"32 32 5 1 ",
"  c #0B8A8F",
". c #0EAF9B",
"X c #8FF8E2",
"o c white",
"O c None",
/* pixels */
"OOOOOOOOOOOOOOOOOOOOOOOOOOOOOOOO",
"OOOOOOOOOOOOOOOOOOOOOOOOOOOOOOOO",
"OOOOOOOOOOOOOOOOOOOOOOOOOOOOOOOO",
"OOOOOOOOOOOOOO OOOOOOOOOOOOOOOOO",
"OOOOOOOOOOOOO.  OOOOOOOOOOOOOOOO",
"OOOOOOOOOOOOO   OOOOOOOOOOOOOOOO",
"OOOOOOOOOOOOO    OOOOOOOOOOOOOOO",
"OOOOOOOOOOOOOO.  OOOOOOOOOOOOOOO",
"OOOOOOOOOOOOO .  OOOOOOOOOOOOOOO",
"OOOOOOOOOOOOO ..  OOOOOOOOOOOOOO",
"OOOOOOOOOOOOO X.   OOOOOOOOOOOOO",
"OOOOOOOOOOOOOoX... OOOOOOOOOOOOO",
"OOOOOOOOOOOO.oX...  OOOOOOOOOOOO",
"OOOOOOOOOOOO XoXX.  OOOOOOOOOOOO",
"OOOOOOOOOOOOOX.XX.. OOOOOOOOOOOO",
"OOOOOOOOOOOOOX.XX... OOOOOOOOOOO",
"OOOOOOOOO ...oXoX... OOOOOOOOOOO",
"OOOOOOOO .XoXoooXX.   OOOOOOOOOO",
"OOOOOOOO .oXoooooXX.. OOOOOOOOOO",
"OOOOOOO .XoooooooXX..  OOOOOOOOO",
"OOOOOOO .XooooooooXX.  OOOOOOOOO",
"OOOOOOO .XooooooooXX..  OOOOOOOO",
"OOOOOOOO .XooooooooX..  OOOOOOOO",
"OOOOOOOO .XooooooooX..  OOOOOOOO",
"OOOOOOOO .XXoooooooX.. OOOOOOOOO",
"OOOOOOOO ..XoXooooXX.   OOOOOOOO",
"OOOOOOOO  .XXXooXXX..   OOOOOOOO",
"OOOOOOOO  .XXXXXXX...  OOOOOOOOO",
"OOOOOOOOO ..........   OOOOOOOOO",
"OOOOOOOOOO   ..       OOOOOOOOOO",
"OOOOOOOOOOO          OOOOOOOOOOO",
"OOOOOOOOOOOOO      OOOOOOOOOOOOO"
};
