/* XPM */
static char *result[] = {
/* columns rows colors chars-per-pixel */
"32 32 5 1 ",
"  c #0B8A8F",
". c #0EAF9B",
"X c #8FF8E2",
"o c white",
"O c None",
/* pixels */
"OOOOOOOOOOOOOOOOOOOOOOOOOOOOOOOO",
"OOOOOOOOOOOOOOOOOOOOOOOOOOOOOOOO",
"OOOOOOOOOOOOOOOOOOOOOOOOOOOOOOOO",
"OOOOOOOOOOOOOOOOOOOOOOOOOOOOOOOO",
"OOOOOOOOOOOOOO OOOOOOOOOOOOOOOOO",
"OOOOOOOOOOOOOO. OOOOOOOOOOOOOOOO",
"OOOOOOOOOOOOOO.  OOOOOOOOOOOOOOO",
"OOOOOOOOOOOOOO.  OOOOOOOOOOOOOOO",
"OOOOOOOOOOOOOO . OOOOOOOOOOOOOOO",
"OOOOOOOOOOOOOO..   OOOOOOOOOOOOO",
"OOOOOOOOOOOOOOO.  OOOOOOOOOOOOOO",
"OOOOOOOOOOOOOOX..   OOOOOOOOOOOO",
"OOOOOOOOOOOOO.oX..  OOOOOOOOOOOO",
"OOOOOOOOOO O XoX... OOOOOOOOOOOO",
"OOOOOOOOOOOO oXX... OOOOOOOOOOOO",
"OOOOOOOOOOO .ooXX.. OOOOOOOOOOOO",
"OOOOOOOOOOOO.oooXX.  OOOOOOOOOOO",
"OOOOOOOOOOO XoooX... OOOOOOOOOOO",
"OOOOOOOOOOO.ooooXX..  OOOOOOOOOO",
"OOOOOOOOO ..oooooX..   OOOOOOOOO",
"OOOOOOOOO .ooooooXX..  OOOOOOOOO",
"OOOOOOOOO.XoooooooXX..  OOOOOOOO",
"OOOOOOOO .XooooooooX..  OOOOOOOO",
"OOOOOOOO .XooooooooX..  OOOOOOOO",
"OOOOOOOO .XoooooooXX..  OOOOOOOO",
"OOOOOOOO ..XooooooXX..  OOOOOOOO",
"OOOOOOOO  .XXXooXXX..   OOOOOOOO",
"OOOOOOOOO  ..XXXXX...  OOOOOOOOO",
"OOOOOOOOOO .........   OOOOOOOOO",
"OOOOOOOOOO   .....    OOOOOOOOOO",
"OOOOOOOOOOO          OOOOOOOOOOO",
"OOOOOOOOOOOOO      OOOOOOOOOOOOO"
};
