/* XPM */
static char *_4f409f3944146a0eed802e6e36de108OTgQcl3fyfayrff9[] = {
/* columns rows colors chars-per-pixel */
"32 32 5 1 ",
"  c None",
". c #0B8A8F",
"X c #0EAF9B",
"o c #8FF8E2",
"O c white",
/* pixels */
"                                ",
"                                ",
"                                ",
"                                ",
"                                ",
"                                ",
"             .                  ",
"             .XX .              ",
"              XX.               ",
"              XX..              ",
"             .oX...             ",
"             .oXX..             ",
"            .XOoX...            ",
"            ..ooXXX.            ",
"            XXOoXXX..           ",
"           .XoOooXX...          ",
"          ..XOOooXXX.           ",
"          . oOOOooXX..          ",
"          .XOOOOOoXX..          ",
"         .XXOOOOOooX...         ",
"         .XoOOOOOOoXX..         ",
"        ..XOOOOOOOoXX...        ",
"        .XoOOOOOOOOoX...        ",
"        .XoOOOOOOOOoX...        ",
"        .XooOOOOOOooXX..        ",
"        .XXoOoOOOOooXX..        ",
"        ..XoooOOoooXX...        ",
"         .XXXoooooXXX..         ",
"         ..XXXXXXXXX...         ",
"          ...XXXXX....          ",
"           ..........           ",
"             ......             "
};
