/* XPM */
static char *d76a97598a8e4c868926f0d8366c5acdF0XAGcwpA9IZxAK4[] = {
/* columns rows colors chars-per-pixel */
"32 32 5 1 ",
"  c None",
". c #0B8A8F",
"X c #0EAF9B",
"o c #8FF8E2",
"O c white",
/* pixels */
"                                ",
"                                ",
"                                ",
"                                ",
"               .                ",
"               .                ",
"              X..               ",
"             .X...              ",
"             XXX..              ",
"             XXX..              ",
"             XoX..              ",
"             .oXX..             ",
"            .OoXXX.             ",
"            .oOoXX..            ",
"           ..oOoXXX.            ",
"           .XOOoooX..           ",
"           .OOOOooX...          ",
"           XoOOOooXX..          ",
"           .oOOOOoXX..          ",
"         .XXXOOOOooXX..         ",
"        XoOOOOOOOOoXX..         ",
"        XoOOOOOOOOooXX..        ",
"       .XoOOOOOOOOoooX..        ",
"       .XoooOOOOOOOOXX..        ",
"       ..XooOOOOOOOoXX..        ",
"        .XXoOOOOOOooXX..        ",
"        ..XooOOOOOoXX...        ",
"         .XXXoOOOoXXX..         ",
"         ..XXXXoooXX...         ",
"          ...XXXXX....          ",
"           ..........           ",
"             ......             "
};
